<?xml version="1.0" standalone="no"?>
<!DOCTYPE svg PUBLIC "-//W3C//DTD SVG 20010904//EN"
 "http://www.w3.org/TR/2001/REC-SVG-20010904/DTD/svg10.dtd">
<svg version="1.0" xmlns="http://www.w3.org/2000/svg"
 width="106.000000pt" height="88.000000pt" viewBox="0 0 106.000000 88.000000"
 preserveAspectRatio="xMidYMid meet">

<g transform="translate(0.000000,88.000000) scale(0.100000,-0.100000)"
fill="#000000" stroke="none">
<path d="M650 782 c-76 -20 -160 -66 -160 -87 0 -11 -12 -15 -45 -15 -74 0
-153 -36 -216 -99 -75 -76 -102 -144 -103 -266 -1 -111 23 -171 87 -213 37
-25 49 -27 142 -27 97 0 104 2 178 38 42 21 77 44 77 51 0 9 19 16 51 20 131
18 227 83 281 193 27 55 33 80 36 153 5 93 -6 144 -40 193 -47 66 -169 92
-288 59z m104 -24 c63 -19 110 -73 131 -152 16 -59 17 -77 7 -142 -24 -152
-104 -243 -215 -244 -72 0 -127 44 -127 102 0 62 -25 48 -43 -24 -15 -57 -15
-64 0 -80 9 -10 31 -20 49 -24 19 -3 36 -10 39 -14 2 -4 -23 -23 -58 -41 -52
-28 -73 -34 -128 -34 -54 0 -72 4 -106 27 -120 79 -125 337 -9 452 77 77 183
84 241 15 17 -21 25 -43 25 -67 0 -31 2 -34 14 -22 12 13 36 92 36 119 0 15
-45 43 -83 50 l-32 7 56 32 c50 28 107 48 148 51 7 1 32 -5 55 -11z"/>
</g>
</svg>
